<mxfile host="app.diagrams.net" modified="2024-03-20T07:27:53.335Z" agent="Mozilla/5.0 (Windows NT 10.0; Win64; x64; rv:109.0) Gecko/20100101 Firefox/110.0" version="24.0.7" etag="gyThu6nX2qFicSst2vne" type="github">
  <diagram name="第 1 页" id="jbKgMZ8qUMG0ULwYWJjo">
    <mxGraphModel>
      <root>
        <mxCell id="0" />
        <mxCell id="1" parent="0" />
      </root>
    </mxGraphModel>
  </diagram>
</mxfile>
